<svg xmlns="http://www.w3.org/2000/svg" viewBox="0 0 120 100" fill="none">
  <defs>
    <filter id="soft"><feGaussianBlur stdDeviation="0.6"/></filter>
    <linearGradient id="og" x1="0%" y1="0%" x2="100%" y2="100%">
      <stop offset="0%" stop-color="#f5a855"/>
      <stop offset="50%" stop-color="#e87830"/>
      <stop offset="100%" stop-color="#d45a20"/>
    </linearGradient>
    <linearGradient id="og2" x1="100%" y1="0%" x2="0%" y2="100%">
      <stop offset="0%" stop-color="#f8c070"/>
      <stop offset="100%" stop-color="#e06828"/>
    </linearGradient>
  </defs>
  <g filter="url(#soft)" opacity="0.92">
    <path d="M60 50 C35 20 8 18 5 38 C12 42 22 48 28 50 C22 52 10 58 5 68 C8 82 32 78 60 50Z" fill="url(#og)" stroke="#c04818" stroke-width="0.6" opacity="0.9"/>
    <path d="M60 50 C85 20 112 18 115 38 C108 42 98 48 92 50 C98 52 110 58 115 68 C112 82 88 78 60 50Z" fill="url(#og2)" stroke="#c04818" stroke-width="0.6" opacity="0.9"/>
    <ellipse cx="8" cy="38" rx="4" ry="5" fill="#1a1410" opacity="0.15"/>
    <ellipse cx="112" cy="38" rx="4" ry="5" fill="#1a1410" opacity="0.15"/>
    <ellipse cx="8" cy="68" rx="3.5" ry="4.5" fill="#1a1410" opacity="0.12"/>
    <ellipse cx="112" cy="68" rx="3.5" ry="4.5" fill="#1a1410" opacity="0.12"/>
    <path d="M28 44 L38 50 L28 56" stroke="#c04818" stroke-width="0.4" opacity="0.5" fill="none"/>
    <path d="M92 44 L82 50 L92 56" stroke="#c04818" stroke-width="0.4" opacity="0.5" fill="none"/>
    <ellipse cx="60" cy="50" rx="2.5" ry="14" fill="#2a2018"/>
    <circle cx="60" cy="36" r="3" fill="#1a1410"/>
    <path d="M58 33 Q60 28 62 33" stroke="#1a1410" stroke-width="0.5" fill="none"/>
    <path d="M55 32 L53 28 M65 32 L67 28" stroke="#1a1410" stroke-width="0.4"/>
  </g>
</svg>
