<svg xmlns="http://www.w3.org/2000/svg" viewBox="0 0 120 100" fill="none">
  <defs>
    <filter id="soft"><feGaussianBlur stdDeviation="0.5"/></filter>
    <linearGradient id="tl" x1="0%" y1="0%" x2="100%" y2="100%">
      <stop offset="0%" stop-color="#5ec4b8"/>
      <stop offset="50%" stop-color="#3a9890"/>
      <stop offset="100%" stop-color="#1a6860"/>
    </linearGradient>
    <linearGradient id="tl2" x1="100%" y1="0%" x2="0%" y2="100%">
      <stop offset="0%" stop-color="#70d0c4"/>
      <stop offset="100%" stop-color="#288880"/>
    </linearGradient>
  </defs>
  <g filter="url(#soft)" opacity="0.88">
    <path d="M60 50 C34 18 6 22 8 40 C16 44 26 48 32 50 C24 54 10 62 6 72 C10 84 34 78 60 50Z" fill="url(#tl)" stroke="#1a4840" stroke-width="0.6"/>
    <path d="M60 50 C86 18 114 22 112 40 C104 44 94 48 88 50 C96 54 110 62 114 72 C110 84 86 78 60 50Z" fill="url(#tl2)" stroke="#1a4840" stroke-width="0.6"/>
    <path d="M14 35 L22 50 L14 65" stroke="#1a3830" stroke-width="0.5" fill="none" opacity="0.5"/>
    <path d="M106 35 L98 50 L106 65" stroke="#1a3830" stroke-width="0.5" fill="none" opacity="0.5"/>
    <ellipse cx="14" cy="40" rx="5" ry="6" fill="#f8f0e0" opacity="0.7"/>
    <ellipse cx="106" cy="40" rx="5" ry="6" fill="#f8f0e0" opacity="0.7"/>
    <ellipse cx="14" cy="65" rx="4" ry="5" fill="#f0e8d8" opacity="0.6"/>
    <ellipse cx="106" cy="65" rx="4" ry="5" fill="#f0e8d8" opacity="0.6"/>
    <ellipse cx="60" cy="50" rx="2.5" ry="13" fill="#1a1410"/>
    <circle cx="60" cy="37" r="3" fill="#1a1410"/>
    <path d="M57 34 Q60 29 63 34" stroke="#1a1410" stroke-width="0.4" fill="none"/>
  </g>
</svg>
