<svg xmlns="http://www.w3.org/2000/svg" viewBox="0 0 120 100" fill="none">
  <defs>
    <filter id="soft"><feGaussianBlur stdDeviation="0.4"/></filter>
  </defs>
  <g filter="url(#soft)" opacity="0.85">
    <path d="M60 50 C32 18 6 20 8 38 C18 42 28 46 34 50 C26 54 12 60 8 70 C12 82 36 76 60 50Z" fill="#fffaf5" stroke="#2a2018" stroke-width="0.7"/>
    <path d="M60 50 C88 18 114 20 112 38 C102 42 92 46 86 50 C94 54 108 60 112 70 C108 82 84 76 60 50Z" fill="#fff8f0" stroke="#2a2018" stroke-width="0.7"/>
    <path d="M12 32 Q22 50 12 68 Q18 50 12 32" stroke="#2a2018" stroke-width="0.5" fill="none"/>
    <path d="M108 32 Q98 50 108 68 Q102 50 108 32" stroke="#2a2018" stroke-width="0.5" fill="none"/>
    <path d="M20 38 Q30 50 20 62" stroke="#2a2018" stroke-width="0.35" fill="none" opacity="0.6"/>
    <path d="M100 38 Q90 50 100 62" stroke="#2a2018" stroke-width="0.35" fill="none" opacity="0.6"/>
    <path d="M8 42 Q16 50 8 58" stroke="#2a2018" stroke-width="0.3" fill="none" opacity="0.4"/>
    <path d="M112 42 Q104 50 112 58" stroke="#2a2018" stroke-width="0.3" fill="none" opacity="0.4"/>
    <ellipse cx="60" cy="50" rx="2" ry="12" fill="#2a2018"/>
    <circle cx="60" cy="38" r="2.5" fill="#1a1410"/>
  </g>
</svg>
